<svg width="50" height="50" viewBox="0 0 50 50" fill="none" xmlns="http://www.w3.org/2000/svg">
<path fill-rule="evenodd" clip-rule="evenodd" d="M17.7742 6.11826C22.326 3.47348 27.9209 3.5197 32.4299 6.23935C36.8947 9.01439 39.6082 13.967 39.5829 19.2947C39.479 24.5874 36.5693 29.5625 32.9322 33.4085C30.8329 35.6383 28.4846 37.6101 25.935 39.2834C25.6725 39.4352 25.3849 39.5369 25.0864 39.5833C24.7991 39.5711 24.5194 39.4862 24.2724 39.3363C20.38 36.822 16.9652 33.6126 14.1923 29.8624C11.872 26.732 10.5538 22.95 10.4166 19.03C10.4136 13.6922 13.2224 8.76305 17.7742 6.11826ZM20.4045 21.2391C21.1701 23.1267 22.9774 24.358 24.9825 24.358C26.296 24.3674 27.5587 23.8413 28.4891 22.8968C29.4196 21.9523 29.9405 20.668 29.9359 19.33C29.9429 17.2876 28.7405 15.4423 26.8901 14.6558C25.0397 13.8692 22.9063 14.2966 21.486 15.7382C20.0658 17.1799 19.6388 19.3515 20.4045 21.2391Z" fill="#5A316B"/>
<ellipse opacity="0.4" cx="24.9999" cy="43.75" rx="10.4167" ry="2.08333" fill="#5A316B"/>
</svg>
